<?xml version="1.0" encoding="UTF-8" standalone="no"?>
<svg width="32px" height="32px" viewBox="0 0 32 32" version="1.1" xmlns="http://www.w3.org/2000/svg" xmlns:xlink="http://www.w3.org/1999/xlink">
    <title>VoiceEase</title>
    <defs>
        <linearGradient x1="0%" y1="0%" x2="100%" y2="100%" id="voiceEaseGradient">
            <stop stop-color="#4F46E5" offset="0%"></stop>
            <stop stop-color="#7C3AED" offset="100%"></stop>
        </linearGradient>
    </defs>
    <g stroke="none" stroke-width="1" fill="none" fill-rule="evenodd">
        <rect fill="url(#voiceEaseGradient)" x="0" y="0" width="32" height="32" rx="6"></rect>
        <g transform="translate(7.000000, 8.000000)" fill="#FFFFFF">
            <path d="M9,0 C9.55228475,0 10,0.44771525 10,1 L10,1 L10,15 C10,15.5522847 9.55228475,16 9,16 C8.44771525,16 8,15.5522847 8,15 L8,15 L8,1 C8,0.44771525 8.44771525,0 9,0 Z" fill-opacity="0.9"></path>
            <path d="M5,4 C5.55228475,4 6,4.44771525 6,5 L6,5 L6,11 C6,11.5522847 5.55228475,12 5,12 C4.44771525,12 4,11.5522847 4,11 L4,11 L4,5 C4,4.44771525 4.44771525,4 5,4 Z" fill-opacity="0.8"></path>
            <path d="M13,4 C13.5522847,4 14,4.44771525 14,5 L14,5 L14,11 C14,11.5522847 13.5522847,12 13,12 C12.4477153,12 12,11.5522847 12,11 L12,11 L12,5 C12,4.44771525 12.4477153,4 13,4 Z" fill-opacity="0.8"></path>
            <path d="M1,6 C1.55228475,6 2,6.44771525 2,7 L2,7 L2,9 C2,9.55228475 1.55228475,10 1,10 C0.44771525,10 0,9.55228475 0,9 L0,9 L0,7 C0,6.44771525 0.44771525,6 1,6 Z" fill-opacity="0.7"></path>
            <path d="M17,6 C17.5522847,6 18,6.44771525 18,7 L18,7 L18,9 C18,9.55228475 17.5522847,10 17,10 C16.4477153,10 16,9.55228475 16,9 L16,9 L16,7 C16,6.44771525 16.4477153,6 17,6 Z" fill-opacity="0.7"></path>
        </g>
    </g>
</svg>
